<svg width="21" height="21" viewBox="0 0 21 21" fill="none" xmlns="http://www.w3.org/2000/svg">
<path fill-rule="evenodd" clip-rule="evenodd" d="M15.784 6.04047C16.0386 5.82839 16.3671 5.72611 16.6971 5.75611C17.0271 5.78612 17.3317 5.94595 17.544 6.20047L20.1477 9.32547C20.3506 9.5811 20.4454 9.90592 20.4119 10.2305C20.3785 10.5551 20.2194 10.8538 19.9687 11.0627C19.7181 11.2716 19.3956 11.3742 19.0703 11.3486C18.745 11.3229 18.4426 11.1711 18.2277 10.9255L15.624 7.80047C15.4119 7.54583 15.3096 7.21738 15.3396 6.88735C15.3696 6.55731 15.5294 6.2527 15.784 6.04047Z" fill="white"/>
<path fill-rule="evenodd" clip-rule="evenodd" d="M15.7837 14.2096C15.529 13.9976 15.369 13.693 15.3387 13.363C15.3085 13.033 15.4105 12.7044 15.6225 12.4496L18.2275 9.32461C18.3311 9.19404 18.4597 9.08551 18.6059 9.0054C18.7521 8.92529 18.9128 8.87523 19.0786 8.85814C19.2444 8.84106 19.4119 8.85731 19.5714 8.90594C19.7308 8.95456 19.8789 9.03458 20.0069 9.14129C20.135 9.24799 20.2404 9.37922 20.317 9.52727C20.3935 9.67531 20.4397 9.83718 20.4528 10.0033C20.4659 10.1695 20.4457 10.3366 20.3932 10.4948C20.3408 10.653 20.2572 10.7992 20.1475 10.9246L17.5437 14.0496C17.3315 14.3041 17.0269 14.464 16.6969 14.494C16.3668 14.524 16.0384 14.4217 15.7837 14.2096Z" fill="white"/>
<path fill-rule="evenodd" clip-rule="evenodd" d="M18.875 10.125C18.875 10.4565 18.7433 10.7745 18.5089 11.0089C18.2745 11.2433 17.9565 11.375 17.625 11.375H9.5C9.16848 11.375 8.85054 11.2433 8.61612 11.0089C8.3817 10.7745 8.25 10.4565 8.25 10.125C8.25 9.79348 8.3817 9.47554 8.61612 9.24112C8.85054 9.0067 9.16848 8.875 9.5 8.875H17.625C17.9565 8.875 18.2745 9.0067 18.5089 9.24112C18.7433 9.47554 18.875 9.79348 18.875 10.125ZM0.75 1.375C0.75 1.04348 0.881696 0.725537 1.11612 0.491116C1.35054 0.256696 1.66848 0.125 2 0.125H13.25C13.5815 0.125 13.8995 0.256696 14.1339 0.491116C14.3683 0.725537 14.5 1.04348 14.5 1.375C14.5 1.70652 14.3683 2.02446 14.1339 2.25888C13.8995 2.4933 13.5815 2.625 13.25 2.625H2C1.66848 2.625 1.35054 2.4933 1.11612 2.25888C0.881696 2.02446 0.75 1.70652 0.75 1.375ZM0.75 18.875C0.75 18.5435 0.881696 18.2255 1.11612 17.9911C1.35054 17.7567 1.66848 17.625 2 17.625H13.25C13.5815 17.625 13.8995 17.7567 14.1339 17.9911C14.3683 18.2255 14.5 18.5435 14.5 18.875C14.5 19.2065 14.3683 19.5245 14.1339 19.7589C13.8995 19.9933 13.5815 20.125 13.25 20.125H2C1.66848 20.125 1.35054 19.9933 1.11612 19.7589C0.881696 19.5245 0.75 19.2065 0.75 18.875Z" fill="white"/>
<path fill-rule="evenodd" clip-rule="evenodd" d="M13.25 0.125C13.5815 0.125 13.8995 0.256696 14.1339 0.491116C14.3683 0.725537 14.5 1.04348 14.5 1.375V6.375C14.5 6.70652 14.3683 7.02446 14.1339 7.25888C13.8995 7.4933 13.5815 7.625 13.25 7.625C12.9185 7.625 12.6005 7.4933 12.3661 7.25888C12.1317 7.02446 12 6.70652 12 6.375V1.375C12 1.04348 12.1317 0.725537 12.3661 0.491116C12.6005 0.256696 12.9185 0.125 13.25 0.125ZM13.25 12.625C13.5815 12.625 13.8995 12.7567 14.1339 12.9911C14.3683 13.2255 14.5 13.5435 14.5 13.875V18.875C14.5 19.2065 14.3683 19.5245 14.1339 19.7589C13.8995 19.9933 13.5815 20.125 13.25 20.125C12.9185 20.125 12.6005 19.9933 12.3661 19.7589C12.1317 19.5245 12 19.2065 12 18.875V13.875C12 13.5435 12.1317 13.2255 12.3661 12.9911C12.6005 12.7567 12.9185 12.625 13.25 12.625ZM2 0.125C2.33152 0.125 2.64946 0.256696 2.88388 0.491116C3.1183 0.725537 3.25 1.04348 3.25 1.375V18.875C3.25 19.2065 3.1183 19.5245 2.88388 19.7589C2.64946 19.9933 2.33152 20.125 2 20.125C1.66848 20.125 1.35054 19.9933 1.11612 19.7589C0.881696 19.5245 0.75 19.2065 0.75 18.875V1.375C0.75 1.04348 0.881696 0.725537 1.11612 0.491116C1.35054 0.256696 1.66848 0.125 2 0.125Z" fill="white"/>
</svg>
