<svg width="21" height="15" viewBox="0 0 21 15" fill="none" xmlns="http://www.w3.org/2000/svg">
<path fill-rule="evenodd" clip-rule="evenodd" d="M19.6847 0.353489C19.9235 0.584914 20.0605 0.901691 20.0656 1.23414C20.0708 1.56658 19.9437 1.88747 19.7123 2.12621L7.92133 14.2921C7.75771 14.4608 7.56187 14.5949 7.34544 14.6865C7.12901 14.7781 6.89638 14.8253 6.66136 14.8253C6.42635 14.8253 6.19372 14.7781 5.97729 14.6865C5.76085 14.5949 5.56502 14.4608 5.4014 14.2921L0.360301 9.09173C0.244224 8.97383 0.152634 8.83411 0.0908104 8.68064C0.0289867 8.52717 -0.00184761 8.36298 8.55858e-05 8.19754C0.00201878 8.0321 0.0366814 7.86867 0.102074 7.71669C0.167467 7.56471 0.262297 7.42717 0.381097 7.31201C0.499897 7.19685 0.640316 7.10634 0.794261 7.04571C0.948205 6.98508 1.11263 6.95552 1.27805 6.95873C1.44348 6.96195 1.60663 6.99787 1.7581 7.06444C1.90957 7.13101 2.04637 7.2269 2.1606 7.34659L6.66136 11.989L17.912 0.38107C18.1434 0.142344 18.4602 0.00532435 18.7927 0.000151911C19.1251 -0.00502053 19.446 0.122078 19.6847 0.353489Z" fill="#1E1E1E"/>
</svg>
