<svg width="25" height="25" viewBox="0 0 25 25" fill="none" xmlns="http://www.w3.org/2000/svg">
<path d="M6.78568 2.08301C5.42734 2.21738 4.51276 2.51947 3.82943 3.20384C2.60547 4.42988 2.60547 6.40384 2.60547 10.3528V14.5403C2.60547 18.4882 2.60547 20.4632 3.82943 21.6903C5.05339 22.9174 7.02422 22.9163 10.9648 22.9163H13.0555C16.9961 22.9163 18.9669 22.9163 20.1909 21.6903C21.3023 20.5757 21.4055 18.8601 21.4148 15.6007" stroke="#C7FC12" stroke-width="1.5625" stroke-linecap="round" stroke-linejoin="round"/>
<path d="M10.9647 7.29117L12.0095 10.937C12.5928 12.0933 13.3251 12.3953 15.1449 12.4995C16.5918 12.4641 17.4314 12.2933 18.148 11.6703C18.6366 11.2453 18.8574 10.6047 18.9647 9.96721L19.323 7.812M21.9355 5.72867V10.937M8.95948 5.13804C10.6126 3.76617 12.0855 3.02971 15.1407 2.21929C15.4854 2.12829 15.848 2.13009 16.1918 2.2245C18.8959 2.96825 20.3564 3.62867 22.3126 5.09742C22.3959 5.15992 22.4209 5.27658 22.3626 5.36304C21.7241 6.30263 20.298 7.06408 16.8001 8.42033C16.0715 8.70068 15.2641 8.69621 14.5387 8.40783C10.8137 6.92867 9.10115 6.137 8.89282 5.31513C8.88605 5.28233 8.88872 5.24828 8.90052 5.21693C8.91232 5.18559 8.93276 5.15823 8.95948 5.13804Z" stroke="#C7FC12" stroke-width="1.5625" stroke-linecap="round" stroke-linejoin="round"/>
</svg>
