<svg width="25" height="25" viewBox="0 0 25 25" fill="none" xmlns="http://www.w3.org/2000/svg">
<path fill-rule="evenodd" clip-rule="evenodd" d="M4.66699 1.66699H4.58366C4.20199 1.66699 3.87366 1.66699 3.58366 1.73533C3.13472 1.8426 2.72424 2.07207 2.39771 2.39831C2.07118 2.72455 1.84134 3.13482 1.73366 3.58366C1.66699 3.87366 1.66699 4.20033 1.66699 4.58366V8.75033C1.66699 9.13199 1.66699 9.46033 1.73533 9.75033C1.8426 10.1993 2.07207 10.6097 2.39831 10.9363C2.72455 11.2628 3.13482 11.4926 3.58366 11.6003C3.87366 11.667 4.20033 11.667 4.58366 11.667H8.75033C9.13199 11.667 9.46033 11.667 9.75033 11.5987C10.1993 11.4914 10.6097 11.2619 10.9363 10.9357C11.2628 10.6094 11.4926 10.1992 11.6003 9.75033C11.667 9.46033 11.667 9.13366 11.667 8.75033V4.58366C11.667 4.20199 11.667 3.87366 11.5987 3.58366C11.4914 3.13472 11.2619 2.72424 10.9357 2.39771C10.6094 2.07118 10.1992 1.84134 9.75033 1.73366C9.46033 1.66699 9.13366 1.66699 8.75033 1.66699H4.66699ZM3.97199 3.35699C4.04366 3.34033 4.15533 3.33366 4.66699 3.33366H8.66699C9.18033 3.33366 9.29033 3.33866 9.36199 3.35699C9.51171 3.39279 9.64858 3.46937 9.75743 3.57822C9.86628 3.68707 9.94286 3.82394 9.97866 3.97366C9.99533 4.04366 10.0003 4.15366 10.0003 4.66699V8.66699C10.0003 9.18033 9.99533 9.29033 9.97699 9.36199C9.94119 9.51171 9.86462 9.64858 9.75577 9.75743C9.64692 9.86628 9.51004 9.94286 9.36033 9.97866C9.29199 9.99366 9.18199 10.0003 8.66699 10.0003H4.66699C4.15366 10.0003 4.04366 9.99533 3.97199 9.97699C3.82228 9.94119 3.6854 9.86462 3.57655 9.75577C3.4677 9.64692 3.39113 9.51004 3.35533 9.36033C3.34033 9.29199 3.33366 9.18199 3.33366 8.66699V4.66699C3.33366 4.15366 3.33866 4.04366 3.35699 3.97199C3.39279 3.82228 3.46937 3.6854 3.57822 3.57655C3.68707 3.4677 3.82394 3.39113 3.97366 3.35533M16.3337 1.66699H16.2503C15.8687 1.66699 15.5403 1.66699 15.2503 1.73533C14.8014 1.8426 14.3909 2.07207 14.0644 2.39831C13.7378 2.72455 13.508 3.13482 13.4003 3.58366C13.3337 3.87366 13.3337 4.20033 13.3337 4.58366V8.75033C13.3337 9.13199 13.3337 9.46033 13.402 9.75033C13.5093 10.1993 13.7387 10.6097 14.065 10.9363C14.3912 11.2628 14.8015 11.4926 15.2503 11.6003C15.5403 11.667 15.867 11.667 16.2503 11.667H20.417C20.7987 11.667 21.127 11.667 21.417 11.5987C21.8659 11.4914 22.2764 11.2619 22.6029 10.9357C22.9295 10.6094 23.1593 10.1992 23.267 9.75033C23.3337 9.46033 23.3337 9.13366 23.3337 8.75033V4.58366C23.3337 4.20199 23.3337 3.87366 23.2653 3.58366C23.1581 3.13472 22.9286 2.72424 22.6023 2.39771C22.2761 2.07118 21.8658 1.84134 21.417 1.73366C21.127 1.66699 20.8003 1.66699 20.417 1.66699H16.3337ZM15.6387 3.35699C15.7103 3.34033 15.822 3.33366 16.3337 3.33366H20.3337C20.847 3.33366 20.957 3.33866 21.0287 3.35699C21.1784 3.39279 21.3152 3.46937 21.4241 3.57822C21.5329 3.68707 21.6095 3.82394 21.6453 3.97366C21.662 4.04366 21.667 4.15366 21.667 4.66699V8.66699C21.667 9.18033 21.6603 9.29033 21.6437 9.36199C21.6079 9.51171 21.5313 9.64858 21.4224 9.75743C21.3136 9.86628 21.1767 9.94286 21.027 9.97866C20.957 9.99533 20.847 10.0003 20.3337 10.0003H16.3337C15.8203 10.0003 15.7103 9.99533 15.6387 9.97699C15.4889 9.94119 15.3521 9.86462 15.2432 9.75577C15.1344 9.64692 15.0578 9.51004 15.022 9.36033C15.007 9.29199 15.0003 9.18199 15.0003 8.66699V4.66699C15.0003 4.15366 15.0053 4.04366 15.0237 3.97199C15.0595 3.82228 15.136 3.6854 15.2449 3.57655C15.3537 3.4677 15.4906 3.39113 15.6403 3.35533M4.58366 13.3337H8.75033C9.13199 13.3337 9.46033 13.3337 9.75033 13.402C10.1993 13.5093 10.6097 13.7387 10.9363 14.065C11.2628 14.3912 11.4926 14.8015 11.6003 15.2503C11.667 15.5403 11.667 15.867 11.667 16.2503V20.417C11.667 20.7987 11.667 21.127 11.5987 21.417C11.4914 21.8659 11.2619 22.2764 10.9357 22.6029C10.6094 22.9295 10.1992 23.1593 9.75033 23.267C9.46033 23.3337 9.13366 23.3337 8.75033 23.3337H4.58366C4.20199 23.3337 3.87366 23.3337 3.58366 23.2653C3.13472 23.1581 2.72424 22.9286 2.39771 22.6023C2.07118 22.2761 1.84134 21.8658 1.73366 21.417C1.66699 21.127 1.66699 20.8003 1.66699 20.417V16.2503C1.66699 15.8687 1.66699 15.5403 1.73533 15.2503C1.8426 14.8014 2.07207 14.3909 2.39831 14.0644C2.72455 13.7378 3.13482 13.508 3.58366 13.4003C3.87366 13.3337 4.20033 13.3337 4.58366 13.3337ZM4.66699 15.0003C4.15366 15.0003 4.04366 15.0053 3.97199 15.0237C3.82228 15.0595 3.6854 15.136 3.57655 15.2449C3.4677 15.3537 3.39113 15.4906 3.35533 15.6403C3.34033 15.7087 3.33366 15.8187 3.33366 16.3337V20.3337C3.33366 20.847 3.33866 20.957 3.35699 21.0287C3.39279 21.1784 3.46937 21.3153 3.57822 21.4241C3.68707 21.533 3.82394 21.6095 3.97366 21.6453C4.04366 21.662 4.15366 21.667 4.66699 21.667H8.66699C9.18033 21.667 9.29033 21.6603 9.36199 21.6437C9.51171 21.6079 9.64858 21.5313 9.75743 21.4224C9.86628 21.3136 9.94286 21.1767 9.97866 21.027C9.99533 20.957 10.0003 20.847 10.0003 20.3337V16.3337C10.0003 15.8203 9.99533 15.7103 9.97699 15.6387C9.94119 15.4889 9.86462 15.3521 9.75577 15.2432C9.64692 15.1344 9.51004 15.0578 9.36033 15.022C9.29199 15.007 9.18199 15.0003 8.66699 15.0003H4.66699ZM16.3337 13.3337H16.2503C15.8687 13.3337 15.5403 13.3337 15.2503 13.402C14.8014 13.5093 14.3909 13.7387 14.0644 14.065C13.7378 14.3912 13.508 14.8015 13.4003 15.2503C13.3337 15.5403 13.3337 15.867 13.3337 16.2503V20.417C13.3337 20.7987 13.3337 21.127 13.402 21.417C13.5093 21.8659 13.7387 22.2764 14.065 22.6029C14.3912 22.9295 14.8015 23.1593 15.2503 23.267C15.5403 23.3353 15.8687 23.3353 16.2503 23.3353H20.417C20.7987 23.3353 21.127 23.3353 21.417 23.267C21.8656 23.1594 22.2757 22.9299 22.602 22.6036C22.9282 22.2774 23.1578 21.8673 23.2653 21.4187C23.3337 21.1287 23.3337 20.8003 23.3337 20.4187V16.252C23.3337 15.8703 23.3337 15.542 23.2653 15.252C23.1583 14.8027 22.929 14.3919 22.6027 14.0651C22.2765 13.7382 21.866 13.5081 21.417 13.4003C21.127 13.3337 20.8003 13.3337 20.417 13.3337H16.3337ZM15.6387 15.0237C15.7103 15.007 15.822 15.0003 16.3337 15.0003H20.3337C20.847 15.0003 20.957 15.0053 21.0287 15.0237C21.1784 15.0595 21.3152 15.136 21.4241 15.2449C21.5329 15.3537 21.6095 15.4906 21.6453 15.6403C21.662 15.7103 21.667 15.8203 21.667 16.3337V20.3337C21.667 20.847 21.6603 20.957 21.6437 21.0287C21.6079 21.1784 21.5313 21.3153 21.4224 21.4241C21.3136 21.533 21.1767 21.6095 21.027 21.6453C20.957 21.662 20.847 21.667 20.3337 21.667H16.3337C15.8203 21.667 15.7103 21.6603 15.6387 21.6437C15.4889 21.6079 15.3521 21.5313 15.2432 21.4224C15.1344 21.3136 15.0578 21.1767 15.022 21.027C15.007 20.9587 15.0003 20.8487 15.0003 20.3337V16.3337C15.0003 15.8203 15.0053 15.7103 15.0237 15.6387C15.0595 15.4889 15.136 15.3521 15.2449 15.2432C15.3537 15.1344 15.4906 15.0578 15.6403 15.022" fill="#C7FC12"/>
</svg>
